# 3ds Max Wavefront OBJ Exporter v0.97b - (c)2007 guruware
# 创建的文件:13.06.2016 16:41:53

mtllib crystal.mtl

#
# object Cone002
#

v  -0.1709 3.3326 3.2390
v  -0.2185 3.3127 3.3013
v  0.2126 -1.5380 3.6179
v  1.2240 0.2452 2.7024
v  -0.2954 3.3203 3.2775
v  -1.1027 -0.8499 3.4254
v  -0.2954 3.3449 3.2005
v  -1.4239 1.9137 1.8828
v  -0.2185 3.3525 3.1766
v  0.2126 2.0754 1.3763
v  -0.8453 -5.8915 0.7558
v  -0.8453 -5.6238 -0.0825
v  -0.0084 -5.5411 -0.3416
v  -0.0084 -5.9742 1.0148
v  0.5089 -5.7576 0.3366
# 15 vertices

vn 0.9331 0.3460 0.0978
vn 0.3145 0.1151 0.9423
vn 0.1693 0.0811 0.9822
vn 0.7244 0.2161 0.6547
vn -0.6746 0.2806 0.6828
vn -0.3074 0.0903 0.9473
vn -0.6346 0.7311 -0.2506
vn -0.8246 0.5604 0.0770
vn 0.3630 0.7399 -0.5664
vn 0.5355 0.7440 -0.3995
vn 0.0000 0.9526 0.3042
vn 0.0000 -0.9526 -0.3042
vn 0.8458 -0.2892 0.4483
vn -0.3368 -0.4587 0.8223
vn -0.9963 -0.0788 0.0341
vn -0.3082 0.2178 -0.9261
vn 0.8387 0.1027 -0.5348
# 17 vertex normals

vt 0.7085 0.9766 0.4553
vt 0.7061 0.9854 0.4416
vt 0.1224 1.0302 0.5658
vt 0.3370 0.9006 0.8570
vt 0.4416 0.7061 0.9854
vt 0.4195 0.7070 0.9820
vt 0.1870 0.2052 1.0030
vt 0.5658 0.1224 1.0302
vt 0.2930 0.9820 0.4195
vt 0.2900 0.9711 0.4195
vt 0.4623 0.7846 0.0945
vt 0.7948 1.0030 0.1870
vt 0.5805 0.9711 0.7100
vt 0.5584 0.9677 0.7109
vt 0.4342 0.7128 0.5572
vt 0.9055 0.7846 0.5377
vt 0.7109 0.9677 0.4416
vt 0.5572 0.7128 0.5658
vt 0.5805 0.9820 0.7070
vt 0.5584 0.9854 0.7061
vt 0.5447 0.9766 0.7085
vt 0.2611 0.6250 -0.4014
vt 0.2611 0.5063 -0.3692
vt 0.5021 0.4696 -0.3593
vt 0.5021 0.6617 -0.4114
vt 0.6511 0.5656 -0.3853
vt -0.4114 0.6617 0.5021
vt -0.3853 0.5656 0.6511
vt 0.2611 -0.4014 0.6250
vt 0.5021 -0.4114 0.6617
vt 1.3692 0.5063 0.2611
vt 1.4014 0.6250 0.2611
vt 0.9055 0.5377 0.7846
vt 0.4342 0.5572 0.7128
vt 0.4979 -0.3593 0.4696
vt 0.7389 -0.3692 0.5063
vt -0.3593 0.4696 0.5021
# 37 texture coords

g Cone002
usemtl Material__28
s 8
f 1/1/1 2/2/2 3/3/3 4/4/4 
f 2/5/2 5/6/5 6/7/6 3/8/3 
f 5/9/5 7/10/7 8/11/8 6/12/6 
f 7/13/7 9/14/9 10/15/10 8/16/8 
f 9/17/9 1/1/1 4/4/4 10/18/10 
s 1
f 5/19/11 2/20/11 1/21/11 7/13/11 
f 9/14/11 7/13/11 1/21/11 
f 11/22/12 12/23/12 13/24/12 14/25/12 
f 15/26/12 14/25/12 13/24/12 
s off
f 4/4/13 3/3/13 14/27/13 15/28/13 
f 3/8/14 6/7/14 11/29/14 14/30/14 
f 6/12/15 8/11/15 12/31/15 11/32/15 
f 8/33/16 10/34/16 13/35/16 12/36/16 
f 10/18/17 4/4/17 15/28/17 13/37/17 
# 12 polygons - 2 triangles

#
# object Cone003
#

v  0.0091 0.9484 -3.6881
v  -0.0244 0.9344 -3.7321
v  0.2800 -0.5374 -4.2457
v  0.9942 -0.2384 -3.3092
v  -0.0788 0.9397 -3.7153
v  -0.8757 -0.4232 -3.8880
v  -0.0788 0.9571 -3.6609
v  -0.8757 -0.0536 -2.7304
v  -0.0244 0.9625 -3.6441
v  0.2800 0.0606 -2.3727
v  -0.4671 -5.5656 -1.9344
v  -0.4671 -5.3766 -1.3424
v  0.1239 -5.3182 -1.1595
v  0.1239 -5.6240 -2.1174
v  0.4892 -5.4711 -1.6384
# 15 vertices

vn 0.7844 0.5908 -0.1886
vn 0.2424 0.3639 -0.8993
vn -0.6346 0.4506 -0.6279
vn -0.6346 0.7311 0.2506
vn 0.2424 0.8178 0.5220
vn 0.0000 0.9526 -0.3042
vn -0.0000 -0.9526 0.3042
vn 0.8068 -0.2489 -0.5358
vn -0.3082 -0.3591 -0.8809
vn -0.9972 -0.0707 0.0226
vn -0.3082 0.2178 0.9261
vn 0.8068 0.1076 0.5810
# 12 vertex normals

vt 0.4216 -0.0042 0.5072
vt 0.4199 -0.0104 0.4975
vt 0.2428 -0.0831 0.5852
vt 0.2788 0.0495 0.7909
vt 0.5025 0.4199 -0.0104
vt 0.5181 0.4205 -0.0080
vt 0.7477 0.2566 -0.0325
vt 0.4148 0.2428 -0.0831
vt 0.5795 -0.0080 0.4819
vt 0.5774 -0.0003 0.4819
vt 0.6990 0.1314 0.2523
vt 0.7434 -0.0325 0.2523
vt 0.5181 -0.0003 0.4226
vt 0.5025 0.0021 0.4233
vt 0.4148 0.1821 0.3148
vt 0.7477 0.1314 0.3010
vt 0.4233 0.0021 0.4975
vt 0.3148 0.1821 0.5852
vt 0.5181 -0.0080 0.4205
vt 0.5025 -0.0104 0.4199
vt 0.4928 -0.0042 0.4216
vt 0.3700 0.2441 -0.3622
vt 0.3700 0.3279 -0.3395
vt 0.5402 0.3538 -0.3324
vt 0.5402 0.2182 -0.3692
vt 0.6454 0.2860 -0.3508
vt -0.3692 0.2182 0.5402
vt -0.3508 0.2860 0.6454
vt 0.6300 -0.3622 0.2441
vt 0.4598 -0.3692 0.2182
vt 1.3395 0.3279 0.3700
vt 1.3622 0.2441 0.3700
vt 0.2523 0.3010 0.1314
vt 0.5852 0.3148 0.1821
vt 0.5402 -0.3324 0.3538
vt 0.3700 -0.3395 0.3279
vt -0.3324 0.3538 0.5402
# 37 texture coords

g Cone003
usemtl Material__28
s 8
f 19/41/18 18/40/19 17/39/19 16/38/18 
f 18/45/19 21/44/20 20/43/20 17/42/19 
f 21/49/20 23/48/21 22/47/21 20/46/20 
f 23/53/21 25/52/22 24/51/22 22/50/21 
f 25/55/22 19/41/18 16/38/18 24/54/22 
s 1
f 22/50/23 16/58/23 17/57/23 20/56/23 
f 16/58/23 22/50/23 24/51/23 
f 29/62/24 28/61/24 27/60/24 26/59/24 
f 28/61/24 29/62/24 30/63/24 
s off
f 30/65/25 29/64/25 18/40/25 19/41/25 
f 29/67/26 26/66/26 21/44/26 18/45/26 
f 26/69/27 27/68/27 23/48/27 21/49/27 
f 27/73/28 28/72/28 25/71/28 23/70/28 
f 28/74/29 30/65/29 19/41/29 25/55/29 
# 12 polygons - 2 triangles

#
# object Cone004
#

v  -3.3353 3.0643 -0.6709
v  -3.3819 3.0481 -0.7150
v  -3.7603 -0.6601 0.4444
v  -3.0861 0.8018 1.0488
v  -3.3558 3.0543 -0.7755
v  -3.4565 1.4756 -1.7147
v  -3.2932 3.0744 -0.7688
v  -2.1233 1.9037 -1.5721
v  -3.2805 3.0806 -0.7042
v  -1.5182 1.4242 -0.1440
v  -1.2570 -4.4807 -1.0035
v  -0.5751 -4.2618 -0.9305
v  -0.4372 -4.1941 -0.2273
v  -1.5405 -4.5484 -0.3453
v  -1.0339 -4.3713 0.1344
# 15 vertices

vn -0.2571 0.5256 0.8110
vn -0.9470 0.2593 0.1896
vn -0.9531 0.1771 0.2456
vn -0.5953 0.4433 0.6702
vn -0.5568 0.4506 -0.6978
vn -0.8093 0.3301 -0.4859
vn 0.3709 0.7153 -0.5923
vn 0.4390 0.7636 -0.4735
vn 0.5835 0.7469 0.3189
vn 0.5143 0.7116 0.4787
vn -0.3024 0.9526 -0.0323
vn 0.3024 -0.9526 0.0323
vn -0.3485 -0.3293 0.8775
vn -0.8147 -0.3621 -0.4530
vn 0.1285 -0.0707 -0.9892
vn 0.9372 0.1954 -0.2890
vn 0.5599 0.0864 0.8240
# 17 vertex normals

vt 0.3238 0.4230 -0.4560
vt 0.3258 0.4167 -0.4694
vt 0.7719 0.5809 -0.5784
vt 0.5961 0.6665 -0.3842
vt 0.3250 0.4082 -0.4619
vt 0.5150 0.2752 -0.4909
vt 1.4619 0.6750 0.4082
vt 1.4439 0.6774 0.4091
vt 1.1070 0.5365 0.2954
vt 1.4909 0.4850 0.2752
vt 0.6774 0.4091 -0.4439
vt 0.6782 0.4183 -0.4402
vt 0.4788 0.4976 0.0673
vt 0.5365 0.2954 -0.1070
vt -0.4402 0.6782 0.4183
vt -0.4560 0.6762 0.4230
vt -0.3842 0.4039 0.6665
vt 0.0673 0.4788 0.4976
vt 1.4619 0.4082 0.6750
vt 1.4694 0.4167 0.6742
vt 1.4560 0.4230 0.6762
vt 1.4439 0.4091 0.6774
vt 1.4402 0.4183 0.6782
vt 0.1425 0.3759 -0.2317
vt 0.3389 0.3862 -0.2053
vt 0.3786 0.4858 -0.1972
vt 0.0609 0.4691 -0.2398
vt 0.2068 0.5370 -0.2185
vt -0.5784 0.2281 0.5809
vt 0.0609 -0.2398 0.4691
vt 0.2068 -0.2185 0.5370
vt 1.2317 0.3759 0.1425
vt 1.2398 0.4691 0.0609
vt 0.6611 -0.2053 0.3862
vt 0.8575 -0.2317 0.3759
vt -0.1972 0.4858 0.3786
vt -0.2053 0.3862 0.3389
vt 0.4039 0.6665 -0.3842
vt -0.2185 0.5370 0.2068
# 39 texture coords

g Cone004
usemtl Material__28
s 8
f 31/75/30 32/76/31 33/77/32 34/78/33 
f 32/76/31 35/79/34 36/80/35 33/77/32 
f 35/81/34 37/82/36 38/83/37 36/84/35 
f 37/85/36 39/86/38 40/87/39 38/88/37 
f 39/89/38 31/90/30 34/91/33 40/92/39 
s 1
f 35/93/40 32/94/40 31/95/40 37/96/40 
f 39/97/40 37/96/40 31/95/40 
f 41/98/41 42/99/41 43/100/41 44/101/41 
f 45/102/41 44/101/41 43/100/41 
s off
f 34/91/42 33/103/42 44/104/42 45/105/42 
f 33/77/43 36/80/43 41/106/43 44/107/43 
f 36/84/44 38/83/44 42/108/44 41/109/44 
f 38/88/45 40/87/45 43/110/45 42/111/45 
f 40/87/46 34/112/46 45/113/46 43/110/46 
# 12 polygons - 2 triangles

#
# object Cone005
#

v  2.7364 0.5252 -0.3391
v  2.7751 0.5137 -0.3626
v  3.1660 -2.4706 -0.1593
v  2.3425 -0.4456 0.4291
v  2.7662 0.5180 -0.4082
v  2.9759 -1.7873 -1.0414
v  2.7219 0.5323 -0.4130
v  2.0344 -0.2945 -1.1421
v  2.7035 0.5367 -0.3702
v  1.6430 -0.2010 -0.2333
v  1.3515 -4.8032 -0.8790
v  0.8700 -4.6486 -0.9305
v  0.6698 -4.6008 -0.4657
v  1.4489 -4.8510 -0.3824
v  1.0276 -4.7259 -0.1270
# 15 vertices

vn 0.1654 0.4900 0.8559
vn 0.8948 0.1558 0.4185
vn 0.9817 0.1392 0.1301
vn 0.4471 0.4365 0.7808
vn 0.7374 0.3250 -0.5922
vn 0.9415 0.1653 -0.2937
vn -0.1817 0.7311 -0.6577
vn 0.1020 0.6007 -0.7930
vn -0.5448 0.8178 0.1855
vn 0.3024 0.9526 0.0323
vn -0.3024 -0.9526 -0.0323
vn 0.2508 -0.2244 0.9417
vn 0.7760 -0.4758 -0.4141
vn 0.0334 -0.0633 -0.9974
vn -0.8880 0.2178 -0.4049
vn -0.6635 0.1076 0.7404
# 16 vertex normals

vt 0.3707 0.4700 1.2926
vt 0.3693 0.4667 1.3038
vt 0.0102 0.4954 1.4164
vt 0.2539 0.5787 1.1792
vt 0.3698 0.4602 1.3012
vt 0.0924 0.3705 1.3616
vt 0.3715 0.4595 1.2885
vt 0.2720 0.3563 1.0905
vt 0.6285 0.4595 1.2885
vt 0.6280 0.4656 1.2832
vt 0.7167 0.4850 0.9777
vt 0.7280 0.3563 1.0905
vt 0.6293 0.4700 1.2926
vt 0.7461 0.5787 1.1792
vt -0.3012 0.4602 0.3698
vt -0.3038 0.4667 0.3693
vt -0.2926 0.4700 0.3707
vt -0.2885 0.4595 0.3715
vt -0.2832 0.4656 0.3720
vt 0.8938 0.3935 -0.2705
vt 0.7551 0.3862 -0.2519
vt 0.6974 0.4520 -0.2461
vt 0.9218 0.4638 -0.2762
vt 0.8005 0.5000 -0.2612
vt 1.1792 0.2539 0.5787
vt 1.4164 0.0102 0.4954
vt 0.9218 -0.2762 0.4638
vt 0.8005 -0.2612 0.5000
vt -0.2705 0.3935 0.8938
vt -0.2762 0.4638 0.9218
vt -0.3616 0.0924 0.3705
vt -0.0905 0.2720 0.3563
vt 0.2449 -0.2519 0.3862
vt 0.1062 -0.2705 0.3935
vt 1.2461 0.4520 0.6974
vt 1.2519 0.3862 0.7551
vt 1.2612 0.5000 0.8005
# 37 texture coords

g Cone005
usemtl Material__28
s 8
f 49/117/50 48/116/49 47/115/48 46/114/47 
f 48/116/49 51/119/52 50/118/51 47/115/48 
f 51/119/52 53/121/54 52/120/53 50/118/51 
f 53/125/54 55/124/55 54/123/55 52/122/53 
f 55/124/55 49/127/50 46/126/47 54/123/55 
s 1
f 52/131/56 46/130/56 47/129/56 50/128/56 
f 46/130/56 52/131/56 54/132/56 
f 59/136/57 58/135/57 57/134/57 56/133/57 
f 58/135/57 59/136/57 60/137/57 
s off
f 60/141/58 59/140/58 48/139/58 49/138/58 
f 59/143/59 56/142/59 51/119/59 48/116/59 
f 56/147/60 57/146/60 53/145/60 51/144/60 
f 57/149/61 58/148/61 55/124/61 53/125/61 
f 58/148/62 60/150/62 49/127/62 55/124/62 
# 12 polygons - 2 triangles

#
# object Cone006
#

v  2.6878 3.0643 1.9779
v  2.7019 3.0481 2.0404
v  3.1420 0.1878 1.7941
v  3.0849 0.9129 0.8217
v  2.6465 3.0543 2.0761
v  2.2064 0.6562 2.9118
v  2.5982 3.0744 2.0356
v  1.1792 1.9037 2.0500
v  2.6237 3.0806 1.9749
v  1.7222 2.0360 0.7582
v  0.7772 -4.4807 1.0949
v  0.2518 -4.2618 0.6542
v  0.5295 -4.1941 -0.0065
v  1.3795 -4.5484 0.7067
v  1.2265 -4.3713 0.0260
# 15 vertices

vn 0.6760 0.4065 -0.6147
vn 0.9170 0.1822 0.3548
vn 0.9236 0.1132 0.3663
vn 0.9213 0.3036 -0.2428
vn 0.0806 0.3699 0.9256
vn 0.4784 0.2034 0.8543
vn -0.5999 0.7311 0.3251
vn -0.5455 0.6593 0.5175
vn -0.2106 0.7611 -0.6135
vn -0.0350 0.7709 -0.6360
vn 0.2330 0.9526 0.1955
vn -0.2330 -0.9526 -0.1955
vn 0.9205 -0.2817 -0.2707
vn 0.5683 -0.3959 0.7213
vn -0.6776 -0.0669 0.7323
vn -0.9075 0.2178 -0.3592
vn 0.1118 0.1043 -0.9882
# 17 vertex normals

vt 0.6762 0.7980 1.2786
vt 0.6742 0.8069 1.2827
vt 0.3301 0.7720 1.4094
vt 0.4173 0.6343 1.3930
vt 0.6750 0.8119 1.2667
vt 0.3864 0.9302 1.1400
vt 1.2667 0.6750 0.8119
vt 1.2528 0.6774 0.8062
vt 0.8442 0.5365 0.8082
vt 1.1400 0.3864 0.9302
vt 0.3226 0.8062 1.2528
vt 0.3218 0.7976 1.2602
vt 0.4475 0.6253 1.0005
vt 0.4635 0.8082 0.8442
vt 0.6782 0.7976 1.2602
vt 0.5525 0.6253 1.0005
vt -0.2667 0.8119 0.6750
vt -0.2827 0.8069 0.6742
vt -0.2786 0.7980 0.6762
vt -0.2528 0.8062 0.6774
vt -0.2602 0.7976 0.6782
vt 0.7284 0.6730 -0.2317
vt 0.5771 0.6106 -0.2053
vt 0.6571 0.5171 -0.1972
vt 0.9018 0.6180 -0.2398
vt 0.8578 0.5217 -0.2185
vt -0.2398 0.6180 0.9018
vt -0.2185 0.5217 0.8578
vt -0.2317 0.6730 0.7284
vt 0.6136 0.9302 1.1400
vt 1.2053 0.6106 0.5771
vt 1.2317 0.6730 0.7284
vt 1.1972 0.5171 0.6571
vt -0.0005 0.5525 0.6253
vt -0.3930 0.4173 0.6343
vt 0.1422 -0.2185 0.5217
vt 0.3429 -0.1972 0.5171
# 37 texture coords

g Cone006
usemtl Material__28
s 8
f 61/151/63 62/152/64 63/153/65 64/154/66 
f 62/152/64 65/155/67 66/156/68 63/153/65 
f 65/157/67 67/158/69 68/159/70 66/160/68 
f 67/161/69 69/162/71 70/163/72 68/164/70 
f 69/165/71 61/151/63 64/154/66 70/166/72 
s 1
f 65/167/73 62/168/73 61/169/73 67/170/73 
f 69/171/73 67/170/73 61/169/73 
f 71/172/74 72/173/74 73/174/74 74/175/74 
f 75/176/74 74/175/74 73/174/74 
s off
f 64/154/75 63/153/75 74/177/75 75/178/75 
f 63/153/76 66/156/76 71/179/76 74/177/76 
f 66/180/77 68/164/77 72/181/77 71/182/77 
f 68/164/78 70/163/78 73/183/78 72/181/78 
f 70/184/79 64/185/79 75/186/79 73/187/79 
# 12 polygons - 2 triangles

#
# object Cone007
#

v  -2.3247 0.5252 -2.2062
v  -2.3700 0.5137 -2.2083
v  -2.5317 -0.4201 -2.6691
v  -1.5694 -1.1954 -2.6243
v  -2.3880 0.5180 -2.1654
v  -2.7159 -0.9397 -1.7568
v  -2.3539 0.5323 -2.1368
v  -2.1898 -0.2945 -1.1482
v  -2.3148 0.5367 -2.1620
v  -1.3580 -0.3495 -1.6843
v  -1.4762 -4.8032 -0.9857
v  -1.1053 -4.6486 -0.6745
v  -0.6799 -4.6008 -0.9487
v  -1.2801 -4.8510 -1.4523
v  -0.7879 -4.7259 -1.4294
# 15 vertices

vn 0.5460 0.4984 -0.6733
vn -0.6223 0.3517 -0.6993
vn -0.4092 0.4480 -0.7949
vn 0.5698 0.4254 -0.7031
vn -0.9488 0.3089 0.0665
vn -0.9407 0.2726 0.2017
vn -0.1809 0.7199 0.6701
vn -0.3502 0.6844 0.6395
vn 0.6922 0.7075 0.1426
vn 0.7065 0.6957 -0.1297
vn -0.2330 0.9526 -0.1955
vn 0.2330 -0.9526 0.1955
vn -0.0949 -0.3107 -0.9458
vn -0.8673 -0.3462 -0.3576
vn -0.6775 -0.0809 0.7310
vn 0.5290 0.2234 0.8187
vn 0.9518 0.1073 -0.2873
# 17 vertex normals

vt 1.1650 0.3707 0.2056
vt 1.1780 0.3693 0.2053
vt 1.2246 0.2569 0.1401
vt 0.9474 0.1636 0.1464
vt 0.6307 0.2053 -0.1780
vt 0.6302 0.2114 -0.1832
vt 0.8056 0.2693 -0.2776
vt 0.7431 0.1401 -0.2246
vt 0.6285 0.2155 -0.1734
vt 0.7280 0.3554 -0.1261
vt 0.3715 0.2155 -0.1734
vt 0.3720 0.2119 -0.1621
vt 0.2654 0.2795 0.1134
vt 0.2720 0.3554 -0.1261
vt 0.3707 0.2056 -0.1650
vt 0.1636 0.1464 0.0526
vt 1.1832 0.2114 0.3698
vt 1.1780 0.2053 0.3693
vt 1.1650 0.2056 0.3707
vt 1.1734 0.2155 0.3715
vt 1.1621 0.2119 0.3720
vt 0.0794 0.3784 -0.2705
vt 0.1862 0.4225 -0.2519
vt 0.3087 0.3837 -0.2461
vt 0.1359 0.3124 -0.2762
vt 0.2776 0.3156 -0.2612
vt 0.8641 -0.2762 0.3124
vt 0.7224 -0.2612 0.3156
vt 1.2705 0.3784 0.0794
vt 1.2762 0.3124 0.1359
vt 1.2519 0.4225 0.1862
vt -0.2461 0.3837 0.3087
vt -0.2519 0.4225 0.1862
vt -0.2612 0.3156 0.2776
# 34 texture coords

g Cone007
usemtl Material__28
s 8
f 79/191/83 78/190/82 77/189/81 76/188/80 
f 78/195/82 81/194/85 80/193/84 77/192/81 
f 81/194/85 83/197/87 82/196/86 80/193/84 
f 83/201/87 85/200/89 84/199/88 82/198/86 
f 85/200/89 79/203/83 76/202/80 84/199/88 
s 1
f 82/207/90 76/206/90 77/205/90 80/204/90 
f 76/206/90 82/207/90 84/208/90 
f 89/212/91 88/211/91 87/210/91 86/209/91 
f 88/211/91 89/212/91 90/213/91 
s off
f 90/215/92 89/214/92 78/190/92 79/191/92 
f 89/217/93 86/216/93 81/194/93 78/195/93 
f 86/216/94 87/218/94 83/197/94 81/194/94 
f 87/220/95 88/219/95 85/200/95 83/201/95 
f 88/219/96 90/221/96 79/203/96 85/200/96 
# 12 polygons - 2 triangles

#
# object Cone008
#

v  -0.0158 -6.1305 -0.0286
v  1.2904 -6.1305 -4.0487
v  3.4040 -6.1305 -2.5132
v  4.2113 -6.1305 -0.0286
v  -3.4355 -6.1305 -2.5132
v  -1.3220 -6.1305 -4.0487
v  -3.4355 -6.1305 2.4560
v  -4.2428 -6.1305 -0.0286
v  1.2904 -6.1305 3.9916
v  -1.3220 -6.1305 3.9916
v  3.4040 -6.1305 2.4560
v  -0.0158 -2.9734 -0.0286
# 12 vertices

vn 0.0000 -1.0000 -0.0000
vn 0.5370 0.8436 -0.0000
vn 0.4344 0.8436 -0.3156
vn 0.5290 0.8310 -0.1719
vn 0.5290 0.8310 0.1719
vn 0.1659 0.8436 -0.5107
vn 0.3269 0.8310 -0.4500
vn -0.1659 0.8436 -0.5107
vn -0.0000 0.8310 -0.5562
vn -0.4344 0.8436 -0.3156
vn -0.3269 0.8310 -0.4500
vn -0.5370 0.8436 0.0000
vn -0.5290 0.8310 -0.1719
vn -0.4344 0.8436 0.3156
vn -0.5290 0.8310 0.1719
vn -0.1659 0.8436 0.5107
vn -0.3269 0.8310 0.4500
vn 0.1659 0.8436 0.5107
vn 0.0000 0.8310 0.5562
vn 0.4344 0.8436 0.3156
vn 0.3269 0.8310 0.4500
vn 1.0000 0.0000 -0.0000
# 22 vertex normals

vt 0.5000 0.5139 -0.4302
vt 0.8762 -0.0552 -0.4302
vt 1.4849 0.1622 -0.4302
vt 1.7174 0.5139 -0.4302
vt -0.4849 0.1622 -0.4302
vt 0.1238 -0.0552 -0.4302
vt -0.4849 0.8657 -0.4302
vt -0.7174 0.5139 -0.4302
vt 0.8762 1.0831 -0.4302
vt 0.1238 1.0831 -0.4302
vt 1.4849 0.8657 -0.4302
vt -0.4302 0.5139 1.7174
vt -0.4302 0.1622 1.4849
vt -0.0503 0.5139 0.5000
vt 0.5000 0.5139 -0.0503
vt 1.4302 0.1622 -0.4849
vt 1.4302 0.5139 -0.7174
vt 1.0503 0.5139 0.5000
vt 1.4302 0.8657 -0.4849
vt -0.4302 0.8657 1.4849
# 20 texture coords

g Cone008
usemtl Material__28
s 1
f 91/222/97 92/223/97 93/224/97 94/225/97 
f 91/222/97 95/226/97 96/227/97 92/223/97 
f 91/222/97 97/228/97 98/229/97 95/226/97 
f 91/222/97 99/230/97 100/231/97 97/228/97 
f 91/222/97 94/225/97 101/232/97 99/230/97 
s 8
f 94/233/98 93/234/99 102/235/100 102/235/101 
f 93/226/99 92/227/102 102/236/103 102/236/100 
f 92/227/102 96/223/104 102/236/105 102/236/103 
f 96/223/104 95/224/106 102/236/107 102/236/105 
f 95/237/106 98/238/108 102/239/109 102/239/107 
f 98/238/108 97/240/110 102/239/111 102/239/109 
f 97/232/110 100/230/112 102/236/113 102/236/111 
f 100/230/112 99/231/114 102/236/115 102/236/113 
f 99/231/114 101/228/116 102/236/117 102/236/115 
f 101/241/116 94/233/98 102/235/101 102/235/117 
s 1
f 102/235/118 102/235/118 102/235/118 102/235/118 
f 102/235/118 102/235/118 102/235/118 102/235/118 
f 102/235/118 102/235/118 102/235/118 102/235/118 
f 102/235/118 102/235/118 102/235/118 102/235/118 
f 102/235/118 102/235/118 102/235/118 102/235/118 
# 20 polygons

#
# object Cone001
#

v  0.0680 9.3306 -0.7074
v  -0.0063 9.3306 -0.6053
v  0.6667 6.5765 1.4658
v  2.2456 5.6124 -0.7074
v  -0.1264 9.3306 -0.6443
v  -1.5029 4.8525 0.4308
v  -0.1264 9.3306 -0.7706
v  -1.6387 5.4574 -2.0506
v  -0.0063 9.3306 -0.8096
v  0.6667 6.5058 -2.8807
v  -0.9849 -5.5664 -0.0205
v  -0.9849 -5.5664 -1.3944
v  0.3217 -5.5664 -1.8189
v  0.3217 -5.5664 0.4040
v  1.1292 -5.5664 -0.7074
# 15 vertices

vn 0.8394 0.5415 -0.0458
vn 0.1651 0.5358 0.8280
vn 0.0668 0.6068 0.7921
vn 0.8616 0.5074 -0.0122
vn -0.7322 0.3910 0.5577
vn -0.8473 0.3590 0.3914
vn -0.7395 0.4974 -0.4536
vn -0.8676 0.4226 -0.2622
vn 0.2933 0.5772 -0.7621
vn 0.1999 0.6058 -0.7701
vn 0.0000 1.0000 -0.0000
vn 0.0000 -1.0000 -0.0000
vn 0.7957 -0.0772 0.6008
vn -0.3586 -0.0652 0.9312
vn -0.9982 -0.0543 0.0267
vn -0.3078 -0.0747 -0.9485
vn 0.7965 -0.0774 -0.5997
# 17 vertex normals

vt 1.4302 0.4178 0.5241
vt 1.4302 0.4323 0.5027
vt 1.0988 0.7255 0.6965
vt 0.9828 0.4178 1.1513
vt -0.4302 0.4323 0.5027
vt -0.4302 0.4268 0.4682
vt 0.1086 0.5790 0.0717
vt -0.0988 0.7255 0.6965
vt -0.4302 0.4089 0.4682
vt 0.0359 0.2277 0.0326
vt -0.4302 0.4034 0.5027
vt -0.0903 0.1101 0.6965
vt 1.4302 0.4034 0.5027
vt 1.0903 0.1101 0.6965
vt 0.5318 0.4268 1.4302
vt 0.4973 0.4323 1.4302
vt 0.4759 0.4178 1.4302
vt 0.5318 0.4089 1.4302
vt 0.4973 0.4034 1.4302
vt 0.2209 0.5151 -0.3623
vt 0.2209 0.3206 -0.3623
vt 0.5972 0.2605 -0.3623
vt 0.5972 0.5752 -0.3623
vt 0.8298 0.4178 -0.3623
vt -0.3623 0.5752 0.5972
vt -0.3623 0.4178 0.8298
vt 0.6965 1.0988 0.7255
vt 0.0717 0.8914 0.5790
vt 0.2209 -0.3623 0.5151
vt 0.5972 -0.3623 0.5752
vt 1.3623 0.3206 0.2209
vt 1.3623 0.5151 0.2209
vt 0.9674 0.9641 0.2277
vt 0.3035 1.0903 0.1101
vt 0.4028 -0.3623 0.2605
vt 0.7791 -0.3623 0.3206
vt -0.3623 0.2605 0.5972
# 37 texture coords

g Cone001
usemtl Material__28
s 8
f 103/242/119 104/243/120 105/244/121 106/245/122 
f 104/246/120 107/247/123 108/248/124 105/249/121 
f 107/247/123 109/250/125 110/251/126 108/248/124 
f 109/250/125 111/252/127 112/253/128 110/251/126 
f 111/254/127 103/242/119 106/245/122 112/255/128 
s 1
f 107/256/129 104/257/129 103/258/129 109/259/129 
f 111/260/129 109/259/129 103/258/129 
f 113/261/130 114/262/130 115/263/130 116/264/130 
f 117/265/130 116/264/130 115/263/130 
s off
f 106/245/131 105/244/131 116/266/131 117/267/131 
f 105/268/132 108/269/132 113/270/132 116/271/132 
f 108/248/133 110/251/133 114/272/133 113/273/133 
f 110/274/134 112/275/134 115/276/134 114/277/134 
f 112/255/135 106/245/135 117/267/135 115/278/135 
# 12 polygons - 2 triangles

